<svg width="89" height="89" viewBox="0 0 89 89" fill="none" xmlns="http://www.w3.org/2000/svg">
<path d="M53.0592 83.4124L4.97593 35.3291L36.3243 3.98074L84.4076 52.064L53.0592 83.4124Z" fill="#8E57D5"/>
<path d="M45.63 85.9351L43.6674 83.9725L48.6434 78.9966L50.606 80.9592L45.63 85.9351Z" fill="#8E57D5"/>
<path d="M80.9592 50.606L78.9966 48.6434L83.9725 43.6674L85.9351 45.63L80.9592 50.606Z" fill="#8E57D5"/>
<path d="M37.7797 78.0848L35.8171 76.1222L40.7931 71.1463L42.7556 73.1088L37.7797 78.0848Z" fill="#8E57D5"/>
<path d="M73.1088 42.7556L71.1463 40.793L76.1222 35.8171L78.0848 37.7797L73.1088 42.7556Z" fill="#8E57D5"/>
<path d="M29.9294 70.2345L27.9668 68.2719L32.9427 63.2959L34.9053 65.2585L29.9294 70.2345Z" fill="#8E57D5"/>
<path d="M65.2585 34.9053L63.2959 32.9427L68.2719 27.9668L70.2345 29.9294L65.2585 34.9053Z" fill="#8E57D5"/>
<path d="M22.079 62.3841L20.1165 60.4215L25.0924 55.4456L27.055 57.4082L22.079 62.3841Z" fill="#8E57D5"/>
<path d="M57.4082 27.055L55.4456 25.0924L60.4215 20.1165L62.3841 22.079L57.4082 27.055Z" fill="#8E57D5"/>
<path d="M14.2287 54.5338L12.2661 52.5712L17.2421 47.5953L19.2046 49.5579L14.2287 54.5338Z" fill="#8E57D5"/>
<path d="M49.5579 19.2046L47.5953 17.2421L52.5712 12.2661L54.5338 14.2287L49.5579 19.2046Z" fill="#8E57D5"/>
<path d="M6.37838 46.6835L4.4158 44.7209L9.39174 39.7449L11.3543 41.7075L6.37838 46.6835Z" fill="#8E57D5"/>
<path d="M41.7075 11.3543L39.7449 9.39173L44.7209 4.4158L46.6835 6.37838L41.7075 11.3543Z" fill="#8E57D5"/>
<path d="M27.3433 33.9336C26.6645 33.2548 26.212 32.4817 25.9857 31.6143C25.7594 30.7469 25.7971 29.8418 26.0988 28.899C26.4005 27.9562 26.9992 27.037 27.8949 26.1413C28.4511 25.585 29.0923 25.1514 29.8182 24.8402C30.563 24.5291 31.355 24.3217 32.1941 24.218C33.0521 24.1143 33.9336 24.1001 34.8387 24.1755C35.7438 24.251 36.6394 24.4018 37.5257 24.6281L37.4125 27.4848C36.366 27.0228 35.3714 26.7824 34.4286 26.7636C33.4952 26.7353 32.6702 26.8531 31.9537 27.1171C31.2371 27.3811 30.6715 27.7205 30.2566 28.1353L29.8041 27.5697C30.6526 27.2302 31.4399 27.0935 32.1658 27.1595C32.9012 27.235 33.6272 27.6309 34.3437 28.3475C34.7963 28.8 35.1074 29.3657 35.2771 30.0445C35.4468 30.7234 35.4374 31.421 35.2488 32.1376C35.0697 32.8635 34.6784 33.5282 34.075 34.1316C33.3773 34.8293 32.6136 35.2536 31.784 35.4044C30.9732 35.5553 30.1765 35.494 29.394 35.2206C28.6114 34.9471 27.9279 34.5182 27.3433 33.9336ZM29.097 32.0103C29.3704 32.2837 29.6627 32.4723 29.9738 32.576C30.3038 32.6797 30.6337 32.6891 30.9637 32.6043C31.3031 32.51 31.6237 32.312 31.9254 32.0103C32.2177 31.718 32.3921 31.4116 32.4487 31.0911C32.5241 30.7705 32.5005 30.4547 32.3779 30.1435C32.2742 29.8324 32.0904 29.5448 31.8264 29.2809C31.5624 29.0169 31.2701 28.8283 30.9496 28.7152C30.6479 28.602 30.3462 28.5643 30.0445 28.602C29.7617 28.6397 29.5259 28.7529 29.3374 28.9414L28.998 29.2809C28.7717 29.5071 28.6209 29.7805 28.5454 30.1011C28.47 30.4217 28.4747 30.7564 28.5596 31.1052C28.6539 31.4446 28.833 31.7463 29.097 32.0103ZM34.6484 41.2387C34.0922 40.6824 33.6538 40.0366 33.3332 39.3012C33.0126 38.5658 32.8524 37.9059 32.8524 37.3213L35.5535 36.7415C35.5158 37.1186 35.5818 37.5335 35.7515 37.986C35.9401 38.4386 36.1805 38.811 36.4728 39.1032C36.6896 39.3201 36.9394 39.4756 37.2223 39.5699C37.5051 39.6642 37.7974 39.6736 38.0991 39.5982C38.4008 39.5228 38.6884 39.3484 38.9618 39.0749C39.2635 38.7732 39.4662 38.448 39.5699 38.0991C39.683 37.7597 39.6877 37.4156 39.584 37.0668C39.4992 36.7179 39.3059 36.3927 39.0042 36.091C38.7119 35.7987 38.3914 35.563 38.0425 35.3839C37.7031 35.1953 37.26 35.0162 36.7132 34.8465L36.699 34.8323L41.9599 29.5714L46.641 34.2525L44.6611 36.2324L41.7478 33.3191L40.2346 34.8323L40.4184 34.1676C40.5693 34.2808 40.7107 34.3939 40.8427 34.507C40.9747 34.6202 41.1019 34.738 41.2245 34.8606C41.8845 35.5206 42.2946 36.223 42.4549 36.9678C42.6246 37.722 42.5916 38.4621 42.3559 39.1881C42.1202 39.914 41.7195 40.5599 41.1538 41.1256C40.5316 41.7478 39.8292 42.1674 39.0466 42.3842C38.2641 42.6011 37.4816 42.6105 36.699 42.4125C35.9259 42.2239 35.2424 41.8327 34.6484 41.2387ZM43.0853 49.4776C42.5479 48.9402 42.1331 48.3368 41.8408 47.6674C41.558 47.0074 41.426 46.3003 41.4448 45.5461C41.4825 44.7918 41.6947 44.014 42.0812 43.2126C42.4772 42.4018 43.0806 41.591 43.8914 40.7802C44.7965 39.8751 45.6498 39.2198 46.4511 38.8144C47.262 38.3996 48.0256 38.1827 48.7422 38.1639C49.4681 38.1545 50.1469 38.3147 50.7786 38.6447C51.4197 38.9653 52.0231 39.4084 52.5888 39.9741C53.1262 40.5115 53.5363 41.1102 53.8192 41.7701C54.1115 42.4395 54.2387 43.1513 54.201 43.9056C54.1822 44.6598 53.9748 45.4424 53.5788 46.2532C53.1922 47.0546 52.5935 47.8607 51.7827 48.6715C50.9436 49.5106 50.1187 50.1281 49.3079 50.5241C48.497 50.9201 47.7145 51.1275 46.9603 51.1464C46.2154 51.1558 45.5178 51.0144 44.8672 50.7221C44.2167 50.4298 43.6227 50.015 43.0853 49.4776ZM45.0369 47.4977C45.5083 47.9691 45.9986 48.2142 46.5077 48.2331C47.0263 48.2425 47.5542 48.0822 48.0916 47.7523C48.6385 47.4317 49.1759 47.0074 49.7038 46.4795C50.2224 45.9609 50.6278 45.4424 50.9201 44.9238C51.2218 44.4147 51.3585 43.9103 51.3302 43.4106C51.3113 42.9015 51.0662 42.4112 50.5948 41.9398C50.1328 41.4779 49.6473 41.2374 49.1381 41.2186C48.629 41.1997 48.1152 41.3459 47.5967 41.657C47.0781 41.9681 46.5596 42.383 46.041 42.9015C45.5225 43.42 45.1029 43.9433 44.7824 44.4713C44.4618 44.9993 44.3062 45.5225 44.3157 46.0411C44.3345 46.5502 44.5749 47.0357 45.0369 47.4977ZM48.3028 54.6668C49.4813 54.6573 50.6126 54.6479 51.6969 54.6385C52.7905 54.6196 53.8041 54.5678 54.7374 54.4829C55.6897 54.3981 56.5288 54.2378 57.2547 54.0021C57.9901 53.7758 58.5841 53.4364 59.0366 52.9838C59.2346 52.7859 59.3761 52.569 59.4609 52.3333C59.5552 52.107 59.5929 51.8713 59.574 51.6262C59.5646 51.3905 59.4986 51.1548 59.3761 50.9191C59.2723 50.6834 59.1121 50.4571 58.8952 50.2403C58.6784 50.0234 58.4521 49.8632 58.2164 49.7594C57.9901 49.6463 57.7686 49.585 57.5517 49.5756C57.3349 49.5662 57.1322 49.5897 56.9436 49.6463C56.7645 49.7123 56.6089 49.8113 56.4769 49.9433C56.1752 50.245 55.9537 50.5608 55.8122 50.8908C55.6897 51.2208 55.6237 51.5602 55.6142 51.909L53.2101 51.7959C53.0687 51.3905 53.0545 50.9332 53.1677 50.4241C53.2902 49.9244 53.4694 49.453 53.7051 49.0099C53.9596 48.5668 54.2 48.2321 54.4263 48.0058C54.9449 47.4873 55.5812 47.1337 56.3355 46.9452C57.0992 46.766 57.9053 46.799 58.7538 47.0442C59.6118 47.2987 60.4367 47.822 61.2287 48.6139C61.8792 49.2645 62.2988 49.9763 62.4873 50.7494C62.6759 51.5225 62.6617 52.2815 62.4449 53.0263C62.2469 53.7711 61.8792 54.4122 61.3418 54.9496C60.9175 55.3739 60.4414 55.718 59.9135 55.982C59.3855 56.246 58.8104 56.4534 58.1881 56.6042C57.5847 56.7551 56.9483 56.8729 56.2789 56.9578C55.619 57.0332 54.9401 57.1086 54.2425 57.1841L53.5778 55.982L57.0567 59.4609L55.0768 61.4408L48.3028 54.6668Z" fill="black"/>
</svg>
