<svg width="98" height="81" viewBox="0 0 98 81" fill="none" xmlns="http://www.w3.org/2000/svg">
<path d="M0 10H98V73H0V10Z" fill="#FE6666"/>
<path d="M5 0H9V10H5V0Z" fill="#FE6666"/>
<path d="M5 71H9V81H5V71Z" fill="#FE6666"/>
<path d="M21 0H25V10H21V0Z" fill="#FE6666"/>
<path d="M21 71H25V81H21V71Z" fill="#FE6666"/>
<path d="M37 0H41V10H37V0Z" fill="#FE6666"/>
<path d="M37 71H41V81H37V71Z" fill="#FE6666"/>
<path d="M53 0H57V10H53V0Z" fill="#FE6666"/>
<path d="M53 71H57V81H53V71Z" fill="#FE6666"/>
<path d="M69 0H73V10H69V0Z" fill="#FE6666"/>
<path d="M69 71H73V81H69V71Z" fill="#FE6666"/>
<path d="M85 0H89V10H85V0Z" fill="#FE6666"/>
<path d="M85 71H89V81H85V71Z" fill="#FE6666"/>
<path d="M28.3123 48L34.9523 32.7H35.1123L41.7523 48H38.3923L34.1523 37.24L36.2523 35.8L31.1723 48H28.3123ZM32.8523 42.68H37.2723L38.2923 45.12H31.9523L32.8523 42.68ZM43.898 33.28H46.798V45.2H53.718V48H43.898V33.28ZM59.3105 42.56C59.3105 43.0267 59.4505 43.4733 59.7305 43.9C60.0105 44.3267 60.3772 44.6733 60.8305 44.94C61.2972 45.2067 61.8039 45.34 62.3505 45.34C62.9505 45.34 63.4839 45.2067 63.9505 44.94C64.4172 44.6733 64.7839 44.3267 65.0505 43.9C65.3305 43.4733 65.4705 43.0267 65.4705 42.56V33.28H68.3305V42.62C68.3305 43.7 68.0639 44.66 67.5305 45.5C66.9972 46.3267 66.2772 46.98 65.3705 47.46C64.4639 47.9267 63.4572 48.16 62.3505 48.16C61.2572 48.16 60.2572 47.9267 59.3505 47.46C58.4572 46.98 57.7439 46.3267 57.2105 45.5C56.6772 44.66 56.4105 43.7 56.4105 42.62V33.28H59.3105V42.56Z" fill="black"/>
</svg>
