<svg width="98" height="98" viewBox="0 0 98 98" fill="none" xmlns="http://www.w3.org/2000/svg">
<rect width="98" height="98" rx="3" fill="black"/>
<rect x="33.4353" y="33.4353" width="30.7451" height="30.7451" rx="3" fill="black"/>
<circle cx="5.18824" cy="4.80392" r="2.49804" fill="#927E7E"/>
<circle cx="5.18824" cy="11.3373" r="2.49804" fill="#927E7E"/>
<circle cx="5.18824" cy="17.8706" r="2.49804" fill="#927E7E"/>
<circle cx="5.18824" cy="24.0196" r="2.49804" fill="#927E7E"/>
<circle cx="5.18824" cy="30.1686" r="2.49804" fill="#927E7E"/>
<circle cx="5.18824" cy="68.2157" r="2.49804" fill="#927E7E"/>
<circle cx="5.18824" cy="74.3647" r="2.49804" fill="#927E7E"/>
<circle cx="5.18824" cy="80.5137" r="2.49804" fill="#927E7E"/>
<circle cx="5.18824" cy="86.6628" r="2.49804" fill="#927E7E"/>
<circle cx="5.18824" cy="92.8118" r="2.49804" fill="#927E7E"/>
<circle cx="5.18824" cy="36.3176" r="2.49804" fill="#927E7E"/>
<circle cx="5.18824" cy="42.4667" r="2.49804" fill="#927E7E"/>
<circle cx="5.18824" cy="48.6157" r="2.49804" fill="#927E7E"/>
<circle cx="5.18824" cy="54.7647" r="2.49804" fill="#927E7E"/>
<circle cx="5.18824" cy="54.7647" r="2.49804" fill="#927E7E"/>
<circle cx="5.18824" cy="60.9137" r="2.49804" fill="#927E7E"/>
<circle cx="12.4902" cy="4.80392" r="2.49804" fill="#927E7E"/>
<circle cx="12.4902" cy="11.3373" r="2.49804" fill="#927E7E"/>
<circle cx="12.4902" cy="17.8706" r="2.49804" fill="#927E7E"/>
<circle cx="12.4902" cy="24.0196" r="2.49804" fill="#927E7E"/>
<circle cx="12.4902" cy="30.1686" r="2.49804" fill="#927E7E"/>
<circle cx="12.4902" cy="68.2157" r="2.49804" fill="#927E7E"/>
<circle cx="12.4902" cy="74.3647" r="2.49804" fill="#927E7E"/>
<circle cx="12.4902" cy="80.5137" r="2.49804" fill="#927E7E"/>
<circle cx="12.4902" cy="86.6628" r="2.49804" fill="#927E7E"/>
<circle cx="12.4902" cy="92.8118" r="2.49804" fill="#927E7E"/>
<circle cx="12.4902" cy="36.3176" r="2.49804" fill="#927E7E"/>
<circle cx="12.4902" cy="42.4667" r="2.49804" fill="#927E7E"/>
<circle cx="12.4902" cy="48.6157" r="2.49804" fill="#927E7E"/>
<circle cx="12.4902" cy="54.7647" r="2.49804" fill="#927E7E"/>
<circle cx="12.4902" cy="54.7647" r="2.49804" fill="#927E7E"/>
<circle cx="12.4902" cy="60.9137" r="2.49804" fill="#927E7E"/>
<circle cx="19.7922" cy="4.80392" r="2.49804" fill="#927E7E"/>
<circle cx="19.7922" cy="11.3373" r="2.49804" fill="#927E7E"/>
<circle cx="19.7922" cy="17.8706" r="2.49804" fill="#927E7E"/>
<circle cx="19.7922" cy="24.0196" r="2.49804" fill="#927E7E"/>
<circle cx="19.7922" cy="30.1686" r="2.49804" fill="#927E7E"/>
<circle cx="19.7922" cy="68.2157" r="2.49804" fill="#927E7E"/>
<circle cx="19.7922" cy="74.3647" r="2.49804" fill="#927E7E"/>
<circle cx="19.7922" cy="80.5137" r="2.49804" fill="#927E7E"/>
<circle cx="19.7922" cy="86.6628" r="2.49804" fill="#927E7E"/>
<circle cx="19.7922" cy="92.8118" r="2.49804" fill="#927E7E"/>
<circle cx="19.7922" cy="36.3176" r="2.49804" fill="#927E7E"/>
<circle cx="19.7922" cy="42.4667" r="2.49804" fill="#927E7E"/>
<circle cx="19.7922" cy="48.6157" r="2.49804" fill="#927E7E"/>
<circle cx="19.7922" cy="54.7647" r="2.49804" fill="#927E7E"/>
<circle cx="19.7922" cy="54.7647" r="2.49804" fill="#927E7E"/>
<circle cx="19.7922" cy="60.9137" r="2.49804" fill="#927E7E"/>
<circle cx="27.0941" cy="4.80392" r="2.49804" fill="#927E7E"/>
<circle cx="27.0941" cy="11.3373" r="2.49804" fill="#927E7E"/>
<circle cx="27.0941" cy="17.8706" r="2.49804" fill="#927E7E"/>
<circle cx="27.0941" cy="24.0196" r="2.49804" fill="#927E7E"/>
<circle cx="27.0941" cy="30.1686" r="2.49804" fill="#927E7E"/>
<circle cx="27.0941" cy="68.2157" r="2.49804" fill="#927E7E"/>
<circle cx="27.0941" cy="74.3647" r="2.49804" fill="#927E7E"/>
<circle cx="27.0941" cy="80.5137" r="2.49804" fill="#927E7E"/>
<circle cx="27.0941" cy="86.6628" r="2.49804" fill="#927E7E"/>
<circle cx="27.0941" cy="92.8118" r="2.49804" fill="#927E7E"/>
<circle cx="27.0941" cy="36.3176" r="2.49804" fill="#927E7E"/>
<circle cx="27.0941" cy="42.4667" r="2.49804" fill="#927E7E"/>
<circle cx="27.0941" cy="48.6157" r="2.49804" fill="#927E7E"/>
<circle cx="27.0941" cy="54.7647" r="2.49804" fill="#927E7E"/>
<circle cx="27.0941" cy="54.7647" r="2.49804" fill="#927E7E"/>
<circle cx="27.0941" cy="60.9137" r="2.49804" fill="#927E7E"/>
<circle cx="34.3961" cy="4.80392" r="2.49804" fill="#927E7E"/>
<circle cx="34.3961" cy="11.3373" r="2.49804" fill="#927E7E"/>
<circle cx="34.3961" cy="17.8706" r="2.49804" fill="#927E7E"/>
<circle cx="34.3961" cy="24.0196" r="2.49804" fill="#927E7E"/>
<circle cx="34.3961" cy="30.1686" r="2.49804" fill="#927E7E"/>
<circle cx="34.3961" cy="68.2157" r="2.49804" fill="#927E7E"/>
<circle cx="34.3961" cy="74.3647" r="2.49804" fill="#927E7E"/>
<circle cx="34.3961" cy="80.5137" r="2.49804" fill="#927E7E"/>
<circle cx="34.3961" cy="86.6628" r="2.49804" fill="#927E7E"/>
<circle cx="34.3961" cy="92.8118" r="2.49804" fill="#927E7E"/>
<circle cx="41.698" cy="4.80392" r="2.49804" fill="#927E7E"/>
<circle cx="41.698" cy="11.3373" r="2.49804" fill="#927E7E"/>
<circle cx="41.698" cy="17.8706" r="2.49804" fill="#927E7E"/>
<circle cx="41.698" cy="24.0196" r="2.49804" fill="#927E7E"/>
<circle cx="41.698" cy="30.1686" r="2.49804" fill="#927E7E"/>
<circle cx="41.698" cy="68.2157" r="2.49804" fill="#927E7E"/>
<circle cx="41.698" cy="74.3647" r="2.49804" fill="#927E7E"/>
<circle cx="41.698" cy="80.5137" r="2.49804" fill="#927E7E"/>
<circle cx="41.698" cy="86.6628" r="2.49804" fill="#927E7E"/>
<circle cx="41.698" cy="92.8118" r="2.49804" fill="#927E7E"/>
<circle cx="49" cy="4.80392" r="2.49804" fill="#927E7E"/>
<circle cx="49" cy="11.3373" r="2.49804" fill="#927E7E"/>
<circle cx="49" cy="17.8706" r="2.49804" fill="#927E7E"/>
<circle cx="49" cy="24.0196" r="2.49804" fill="#927E7E"/>
<circle cx="49" cy="30.1686" r="2.49804" fill="#927E7E"/>
<circle cx="49" cy="68.2157" r="2.49804" fill="#927E7E"/>
<circle cx="49" cy="74.3647" r="2.49804" fill="#927E7E"/>
<circle cx="49" cy="80.5137" r="2.49804" fill="#927E7E"/>
<circle cx="49" cy="86.6628" r="2.49804" fill="#927E7E"/>
<circle cx="49" cy="92.8118" r="2.49804" fill="#927E7E"/>
<circle cx="56.302" cy="4.80392" r="2.49804" fill="#927E7E"/>
<circle cx="56.302" cy="11.3373" r="2.49804" fill="#927E7E"/>
<circle cx="56.302" cy="17.8706" r="2.49804" fill="#927E7E"/>
<circle cx="56.302" cy="24.0196" r="2.49804" fill="#927E7E"/>
<circle cx="56.302" cy="30.1686" r="2.49804" fill="#927E7E"/>
<circle cx="56.302" cy="68.2157" r="2.49804" fill="#927E7E"/>
<circle cx="56.302" cy="74.3647" r="2.49804" fill="#927E7E"/>
<circle cx="56.302" cy="80.5137" r="2.49804" fill="#927E7E"/>
<circle cx="56.302" cy="86.6628" r="2.49804" fill="#927E7E"/>
<circle cx="56.302" cy="92.8118" r="2.49804" fill="#927E7E"/>
<circle cx="63.6039" cy="4.80392" r="2.49804" fill="#927E7E"/>
<circle cx="63.6039" cy="11.3373" r="2.49804" fill="#927E7E"/>
<circle cx="63.6039" cy="17.8706" r="2.49804" fill="#927E7E"/>
<circle cx="63.6039" cy="24.0196" r="2.49804" fill="#927E7E"/>
<circle cx="63.6039" cy="30.1686" r="2.49804" fill="#927E7E"/>
<circle cx="63.6039" cy="68.2157" r="2.49804" fill="#927E7E"/>
<circle cx="63.6039" cy="74.3647" r="2.49804" fill="#927E7E"/>
<circle cx="63.6039" cy="80.5137" r="2.49804" fill="#927E7E"/>
<circle cx="63.6039" cy="86.6628" r="2.49804" fill="#927E7E"/>
<circle cx="63.6039" cy="92.8118" r="2.49804" fill="#927E7E"/>
<circle cx="70.9059" cy="4.80392" r="2.49804" fill="#927E7E"/>
<circle cx="70.9059" cy="11.3373" r="2.49804" fill="#927E7E"/>
<circle cx="70.9059" cy="17.8706" r="2.49804" fill="#927E7E"/>
<circle cx="70.9059" cy="24.0196" r="2.49804" fill="#927E7E"/>
<circle cx="70.9059" cy="30.1686" r="2.49804" fill="#927E7E"/>
<circle cx="70.9059" cy="68.2157" r="2.49804" fill="#927E7E"/>
<circle cx="70.9059" cy="74.3647" r="2.49804" fill="#927E7E"/>
<circle cx="70.9059" cy="80.5137" r="2.49804" fill="#927E7E"/>
<circle cx="70.9059" cy="86.6628" r="2.49804" fill="#927E7E"/>
<circle cx="70.9059" cy="92.8118" r="2.49804" fill="#927E7E"/>
<circle cx="70.9059" cy="36.3176" r="2.49804" fill="#927E7E"/>
<circle cx="70.9059" cy="42.4667" r="2.49804" fill="#927E7E"/>
<circle cx="70.9059" cy="48.6157" r="2.49804" fill="#927E7E"/>
<circle cx="70.9059" cy="54.7647" r="2.49804" fill="#927E7E"/>
<circle cx="70.9059" cy="54.7647" r="2.49804" fill="#927E7E"/>
<circle cx="70.9059" cy="60.9137" r="2.49804" fill="#927E7E"/>
<circle cx="78.2078" cy="4.80392" r="2.49804" fill="#927E7E"/>
<circle cx="78.2078" cy="11.3373" r="2.49804" fill="#927E7E"/>
<circle cx="78.2078" cy="17.8706" r="2.49804" fill="#927E7E"/>
<circle cx="78.2078" cy="24.0196" r="2.49804" fill="#927E7E"/>
<circle cx="78.2078" cy="30.1686" r="2.49804" fill="#927E7E"/>
<circle cx="78.2078" cy="68.2157" r="2.49804" fill="#927E7E"/>
<circle cx="78.2078" cy="74.3647" r="2.49804" fill="#927E7E"/>
<circle cx="78.2078" cy="80.5137" r="2.49804" fill="#927E7E"/>
<circle cx="78.2078" cy="86.6628" r="2.49804" fill="#927E7E"/>
<circle cx="78.2078" cy="92.8118" r="2.49804" fill="#927E7E"/>
<circle cx="78.2078" cy="36.3176" r="2.49804" fill="#927E7E"/>
<circle cx="78.2078" cy="42.4667" r="2.49804" fill="#927E7E"/>
<circle cx="78.2078" cy="48.6157" r="2.49804" fill="#927E7E"/>
<circle cx="78.2078" cy="54.7647" r="2.49804" fill="#927E7E"/>
<circle cx="78.2078" cy="54.7647" r="2.49804" fill="#927E7E"/>
<circle cx="78.2078" cy="60.9137" r="2.49804" fill="#927E7E"/>
<circle cx="85.5098" cy="4.80392" r="2.49804" fill="#927E7E"/>
<circle cx="85.5098" cy="11.3373" r="2.49804" fill="#927E7E"/>
<circle cx="85.5098" cy="17.8706" r="2.49804" fill="#927E7E"/>
<circle cx="85.5098" cy="24.0196" r="2.49804" fill="#927E7E"/>
<circle cx="85.5098" cy="30.1686" r="2.49804" fill="#927E7E"/>
<circle cx="85.5098" cy="68.2157" r="2.49804" fill="#927E7E"/>
<circle cx="85.5098" cy="74.3647" r="2.49804" fill="#927E7E"/>
<circle cx="85.5098" cy="80.5137" r="2.49804" fill="#927E7E"/>
<circle cx="85.5098" cy="86.6628" r="2.49804" fill="#927E7E"/>
<circle cx="85.5098" cy="92.8118" r="2.49804" fill="#927E7E"/>
<circle cx="85.5098" cy="36.3176" r="2.49804" fill="#927E7E"/>
<circle cx="85.5098" cy="42.4667" r="2.49804" fill="#927E7E"/>
<circle cx="85.5098" cy="48.6157" r="2.49804" fill="#927E7E"/>
<circle cx="85.5098" cy="54.7647" r="2.49804" fill="#927E7E"/>
<circle cx="85.5098" cy="54.7647" r="2.49804" fill="#927E7E"/>
<circle cx="85.5098" cy="60.9137" r="2.49804" fill="#927E7E"/>
<circle cx="92.8118" cy="4.80392" r="2.49804" fill="#927E7E"/>
<circle cx="92.8118" cy="11.3373" r="2.49804" fill="#927E7E"/>
<circle cx="92.8118" cy="17.8706" r="2.49804" fill="#927E7E"/>
<circle cx="92.8118" cy="24.0196" r="2.49804" fill="#927E7E"/>
<circle cx="92.8118" cy="30.1686" r="2.49804" fill="#927E7E"/>
<circle cx="92.8118" cy="68.2157" r="2.49804" fill="#927E7E"/>
<circle cx="92.8118" cy="74.3647" r="2.49804" fill="#927E7E"/>
<circle cx="92.8118" cy="80.5137" r="2.49804" fill="#927E7E"/>
<circle cx="92.8118" cy="86.6628" r="2.49804" fill="#927E7E"/>
<circle cx="92.8118" cy="92.8118" r="2.49804" fill="#927E7E"/>
<circle cx="92.8118" cy="36.3176" r="2.49804" fill="#927E7E"/>
<circle cx="92.8118" cy="42.4667" r="2.49804" fill="#927E7E"/>
<circle cx="92.8118" cy="48.6157" r="2.49804" fill="#927E7E"/>
<circle cx="92.8118" cy="54.7647" r="2.49804" fill="#927E7E"/>
<circle cx="92.8118" cy="54.7647" r="2.49804" fill="#927E7E"/>
<circle cx="92.8118" cy="60.9137" r="2.49804" fill="#927E7E"/>
</svg>
