<svg width="58" height="69" viewBox="0 0 58 69" fill="none" xmlns="http://www.w3.org/2000/svg">
<path d="M7.73122 68.1942L7.73122 0.194183H52.0646L52.0646 68.1942H7.73122Z" fill="#B8C800"/>
<path d="M0.694183 64.7248L0.694183 61.9493H7.73122V64.7248H0.694183Z" fill="#B8C800"/>
<path d="M50.6571 64.7248V61.9493H57.6942V64.7248H50.6571Z" fill="#B8C800"/>
<path d="M0.694183 53.6228L0.694183 50.8472H7.73122V53.6228H0.694183Z" fill="#B8C800"/>
<path d="M50.6571 53.6228V50.8472H57.6942V53.6228H50.6571Z" fill="#B8C800"/>
<path d="M0.694183 42.5207L0.694183 39.7452H7.73122V42.5207H0.694183Z" fill="#B8C800"/>
<path d="M50.6571 42.5207V39.7452H57.6942V42.5207H50.6571Z" fill="#B8C800"/>
<path d="M0.694183 31.4187L0.694183 28.6432H7.73122V31.4187H0.694183Z" fill="#B8C800"/>
<path d="M50.6571 31.4187V28.6432L57.6942 28.6432V31.4187L50.6571 31.4187Z" fill="#B8C800"/>
<path d="M0.694183 20.3166L0.694183 17.5411H7.73122V20.3166H0.694183Z" fill="#B8C800"/>
<path d="M50.6571 20.3166V17.5411L57.6942 17.5411V20.3166L50.6571 20.3166Z" fill="#B8C800"/>
<path d="M0.694183 9.21459L0.694183 6.43908H7.73122L7.73122 9.21459H0.694183Z" fill="#B8C800"/>
<path d="M50.6571 9.21459V6.43908L57.6942 6.43908V9.21459L50.6571 9.21459Z" fill="#B8C800"/>
</svg>
