<svg width="66" height="66" viewBox="0 0 66 66" fill="none" xmlns="http://www.w3.org/2000/svg">
<circle cx="33" cy="33" r="31.4135" fill="black" stroke="white" stroke-width="3.17308"/>
<path d="M30.2276 54.1031L27.4353 51.2092C28.383 50.3969 29.1276 49.3815 29.6692 48.1631C30.2107 46.9785 30.4815 45.5738 30.4815 43.9492V22.9815H35.2538V44.1523C35.2538 46.5215 34.8476 48.5185 34.0353 50.1431C33.2569 51.8015 31.9876 53.1215 30.2276 54.1031ZM30.0753 15.3662C30.0753 14.6215 30.363 13.9954 30.9384 13.4877C31.5476 12.98 32.2076 12.7262 32.9184 12.7262C33.6292 12.7262 34.2553 12.98 34.7969 13.4877C35.3722 13.9954 35.6599 14.6215 35.6599 15.3662C35.6599 16.1446 35.3722 16.7877 34.7969 17.2954C34.2553 17.7692 33.6292 18.0062 32.9184 18.0062C32.2076 18.0062 31.5476 17.7523 30.9384 17.2446C30.363 16.7369 30.0753 16.1108 30.0753 15.3662Z" fill="white"/>
</svg>
