<svg width="148" height="116" viewBox="0 0 148 116" fill="none" xmlns="http://www.w3.org/2000/svg">
<path d="M14.022 86.044L14.022 29.956L133.846 29.956L133.846 86.0439L14.022 86.044Z" fill="#1F009A"/>
<path d="M40.1538 38.5604C50.89 38.5604 59.5934 47.2638 59.5934 58C59.5934 68.7362 50.89 77.4395 40.1538 77.4395C29.4177 77.4395 20.7143 68.7362 20.7143 58C20.7143 47.2638 29.4177 38.5604 40.1538 38.5604Z" fill="#FF7474"/>
<circle cx="40.1538" cy="58" r="6.37363" transform="rotate(-90 40.1538 58)" fill="black"/>
<path d="M66.1388 76.4713C65.791 76.5644 65.4494 76.5904 65.114 76.5491C64.785 76.5062 64.4881 76.4028 64.2234 76.2391L64.5843 75.3452C64.8404 75.4767 65.0666 75.5611 65.2629 75.5982C65.464 75.6272 65.6353 75.6227 65.777 75.5847C65.8864 75.5554 65.9804 75.5198 66.059 75.4781C66.1422 75.4282 66.2036 75.3738 66.243 75.3149C66.2807 75.2496 66.2892 75.1783 66.2685 75.101C66.2392 74.9915 66.1708 74.9167 66.0634 74.8764C65.9624 74.8345 65.8392 74.8123 65.6936 74.8099C65.5463 74.801 65.3893 74.7948 65.2227 74.7911C64.8035 74.7723 64.476 74.6703 64.24 74.485C64.0087 74.2916 63.856 74.0565 63.7818 73.7796C63.7248 73.5671 63.7226 73.3399 63.7752 73.0981C63.8324 72.8481 63.9644 72.6194 64.1711 72.4122C64.3826 72.1968 64.6847 72.0365 65.0775 71.9312C65.4317 71.8363 65.7406 71.7915 66.0043 71.7968C66.268 71.802 66.5309 71.8558 66.793 71.9582L66.4933 72.8874C66.345 72.8236 66.185 72.7802 66.0132 72.7572C65.8461 72.7261 65.6973 72.7245 65.5668 72.7526C65.4492 72.7772 65.3528 72.8168 65.2777 72.8715C65.2091 72.9244 65.1591 72.9826 65.1278 73.0462C65.0966 73.1098 65.0887 73.1706 65.1042 73.2285C65.1306 73.3526 65.2015 73.4371 65.3171 73.4821C65.4391 73.5253 65.5826 73.5455 65.7475 73.5428C65.9124 73.54 66.0758 73.5445 66.2377 73.5563C66.461 73.5655 66.6614 73.605 66.8388 73.6748C67.0163 73.7446 67.1643 73.8464 67.283 73.9802C67.4064 74.1059 67.4966 74.275 67.5535 74.4875C67.6225 74.7451 67.6205 75.0079 67.5474 75.276C67.479 75.5358 67.3285 75.7729 67.096 75.987C66.87 76.1994 66.5509 76.3608 66.1388 76.4713ZM68.1559 73.5186C68.0403 73.0871 68.0366 72.674 68.1448 72.2792C68.2594 71.8827 68.4743 71.5387 68.7896 71.2472C69.1032 70.9492 69.4982 70.7364 69.9748 70.6087C70.4577 70.4793 70.903 70.4669 71.3107 70.5716C71.7166 70.6699 72.0587 70.8647 72.3369 71.156C72.6215 71.4455 72.8217 71.806 72.9373 72.2374C73.0529 72.6689 73.0607 73.0843 72.9607 73.4838C72.8654 73.8752 72.6674 74.2181 72.3667 74.5126C72.066 74.8071 71.6677 75.0208 71.1719 75.1537C70.7083 75.2779 70.2687 75.2991 69.8534 75.2171C69.4445 75.1334 69.0912 74.9486 68.7937 74.6625C68.4962 74.3764 68.2836 73.9951 68.1559 73.5186ZM69.5205 73.1633C69.5791 73.3822 69.6777 73.5698 69.8162 73.7259C69.9529 73.8756 70.1124 73.9813 70.2945 74.0429C70.4767 74.1046 70.6643 74.1095 70.8575 74.0577C71.07 74.0008 71.2398 73.9001 71.3667 73.7556C71.4936 73.6112 71.5757 73.4408 71.6128 73.2445C71.6482 73.0418 71.6366 72.831 71.5779 72.612C71.5175 72.3866 71.4222 72.1982 71.2919 72.0468C71.1616 71.8953 71.0053 71.7888 70.8232 71.7272C70.641 71.6656 70.4437 71.6632 70.2312 71.7202C70.038 71.7719 69.8779 71.87 69.751 72.0145C69.6241 72.1589 69.5388 72.3302 69.4952 72.5282C69.4517 72.7262 69.4601 72.9379 69.5205 73.1633ZM75.9986 73.9536C75.6187 74.0554 75.2689 74.0249 74.9492 73.862C74.6278 73.6928 74.4106 73.4232 74.2976 73.0531L73.4513 69.8945L74.8036 69.5322L75.5153 72.1885C75.5783 72.3718 75.6671 72.5102 75.7819 72.6037C75.8949 72.6907 76.0513 72.7075 76.2509 72.654C76.4505 72.6005 76.603 72.4872 76.7085 72.314C76.8203 72.1391 76.8839 71.9253 76.899 71.6728C76.9189 71.4121 76.8891 71.1337 76.8098 70.8374L76.3491 69.1181L77.7014 68.7557L78.8324 72.9768L77.6057 73.3055L77.2924 72.5613L77.335 72.643C77.285 72.8428 77.204 73.0301 77.0922 73.205C76.9803 73.3799 76.8308 73.5304 76.6437 73.6565C76.4648 73.7872 76.2498 73.8863 75.9986 73.9536ZM80.3189 68.0544L80.627 68.7793L80.5896 68.7169C80.6669 68.4132 80.8193 68.1446 81.0466 67.9112C81.2722 67.6713 81.5814 67.4987 81.9742 67.3934C82.3735 67.2864 82.737 67.3167 83.0649 67.4842C83.3974 67.6436 83.617 67.9091 83.7235 68.2809L84.5698 71.4395L83.2176 71.8018L82.5058 69.1455C82.4493 68.9605 82.3581 68.8262 82.2322 68.7426C82.111 68.6509 81.9409 68.6343 81.722 68.693C81.5159 68.7482 81.3537 68.8641 81.2354 69.0408C81.1171 69.2174 81.0471 69.4329 81.0255 69.6871C81.0039 69.9414 81.0337 70.2198 81.1148 70.5225L81.5755 72.2418L80.2232 72.6042L79.0921 68.3831L80.3189 68.0544ZM87.7088 70.7227C87.316 70.8279 86.9409 70.8318 86.5834 70.7343C86.2243 70.6304 85.908 70.4287 85.6345 70.1293C85.3675 69.8281 85.1701 69.4393 85.0424 68.9628C84.9147 68.4863 84.9026 68.0547 85.0061 67.6681C85.1096 67.2815 85.3054 66.9564 85.5937 66.6928C85.882 66.4292 86.2386 66.2404 86.6636 66.1266C86.9341 66.0541 87.2029 66.0269 87.47 66.0451C87.7436 66.0615 87.9874 66.1342 88.2014 66.2632L88.3152 66.6882L87.2101 62.5637L88.5527 62.204L90.5948 69.8251L89.2425 70.1875L89.0225 69.3664L89.2064 69.6277C89.0358 69.8667 88.8325 70.0868 88.5965 70.2881C88.3589 70.4829 88.0629 70.6278 87.7088 70.7227ZM87.8477 69.4638C88.028 69.4155 88.1797 69.3507 88.3029 69.2694C88.4307 69.1799 88.5341 69.0763 88.613 68.9585C88.6966 68.8326 88.758 68.6884 88.7973 68.5261L88.5204 67.4925C88.4309 67.3647 88.3185 67.2671 88.1832 67.1998C88.0525 67.1244 87.903 67.0816 87.7347 67.0715C87.571 67.0533 87.3991 67.0683 87.2188 67.1166C87.0191 67.1701 86.8462 67.2716 86.6999 67.4213C86.5584 67.5627 86.4594 67.7342 86.403 67.9357C86.3465 68.1371 86.3485 68.3506 86.4089 68.5759C86.4693 68.8013 86.5751 68.9904 86.7265 69.1431C86.8778 69.2958 87.051 69.4012 87.246 69.4594C87.4475 69.5158 87.6481 69.5173 87.8477 69.4638ZM94.7892 68.8254C94.4351 68.9203 94.1201 68.9426 93.8443 68.8923C93.5733 68.8338 93.3217 68.7321 93.0897 68.5872L93.1183 68.269L93.3383 69.09L91.986 69.4523L89.9439 61.8312L91.2865 61.4714L92.3917 65.5959L92.2752 65.1613C92.4047 64.9747 92.5949 64.7961 92.8459 64.6253C93.097 64.4545 93.3996 64.3217 93.7537 64.2268C94.1208 64.1284 94.4789 64.1256 94.8282 64.2184C95.1774 64.3112 95.4871 64.5008 95.7571 64.7874C96.0318 65.0657 96.233 65.4432 96.3607 65.9197C96.4884 66.3962 96.4958 66.836 96.3829 67.2389C96.2765 67.6401 96.0808 67.979 95.796 68.2555C95.5112 68.5319 95.1756 68.7219 94.7892 68.8254ZM94.1844 67.7659C94.384 67.7124 94.5537 67.6117 94.6936 67.4638C94.8398 67.3142 94.9403 67.1354 94.995 66.9275C95.0497 66.7196 95.0469 66.503 94.9865 66.2776C94.9261 66.0522 94.8211 65.8664 94.6715 65.7201C94.5219 65.5738 94.3472 65.4757 94.1475 65.4257C93.9524 65.3675 93.7551 65.3652 93.5555 65.4187C93.3816 65.4653 93.2252 65.5383 93.0861 65.6376C92.9518 65.7288 92.8437 65.8406 92.7619 65.973C92.6847 66.0972 92.6362 66.2379 92.6162 66.3951L92.8931 67.4286C93.0083 67.5496 93.1304 67.6445 93.2593 67.7135C93.3929 67.7744 93.5375 67.8115 93.693 67.8251C93.8467 67.8322 94.0105 67.8125 94.1844 67.7659ZM95.9715 60.2161L97.3238 59.8538L99.3659 67.4749L98.0136 67.8373L95.9715 60.2161ZM102.567 66.7414C102.174 66.8467 101.796 66.8652 101.433 66.7969C101.074 66.7205 100.757 66.543 100.482 66.2647C100.208 65.9863 100.002 65.5927 99.8659 65.084C99.7382 64.6075 99.7244 64.1695 99.8244 63.77C99.9244 63.3705 100.107 63.0351 100.373 62.7638C100.636 62.4861 100.945 62.2998 101.3 62.2049C101.718 62.0927 102.053 62.079 102.303 62.1637C102.558 62.2403 102.779 62.3433 102.966 62.4728L102.952 62.6525L102.912 62.0007L104.167 61.6642L105.298 65.8853L103.946 66.2476L103.7 65.33L103.884 65.5913C103.871 65.5948 103.843 65.6438 103.799 65.7383C103.754 65.8264 103.681 65.9392 103.579 66.0767C103.483 66.2061 103.351 66.3312 103.183 66.4521C103.023 66.5777 102.818 66.6741 102.567 66.7414ZM102.658 65.5367C102.819 65.4936 102.958 65.4322 103.075 65.3527C103.19 65.2666 103.283 65.1656 103.356 65.0496C103.427 64.9271 103.478 64.7855 103.511 64.6249L103.234 63.5913C103.145 63.4635 103.036 63.3651 102.907 63.2961C102.776 63.2206 102.633 63.1762 102.478 63.1626C102.32 63.1426 102.155 63.1559 101.981 63.2025C101.788 63.2543 101.621 63.3541 101.481 63.502C101.346 63.6417 101.254 63.8114 101.204 64.0112C101.154 64.2109 101.159 64.4235 101.219 64.6489C101.28 64.8743 101.386 65.0633 101.537 65.216C101.688 65.3687 101.862 65.4741 102.057 65.5323C102.258 65.5888 102.459 65.5902 102.658 65.5367ZM108.087 65.2313C107.739 65.3245 107.397 65.3505 107.062 65.3092C106.733 65.2662 106.436 65.1629 106.171 64.9992L106.532 64.1053C106.788 64.2368 107.015 64.3211 107.211 64.3583C107.412 64.3872 107.583 64.3827 107.725 64.3448C107.834 64.3154 107.928 64.2799 108.007 64.2381C108.09 64.1882 108.152 64.1338 108.191 64.075C108.229 64.0096 108.237 63.9383 108.216 63.8611C108.187 63.7516 108.119 63.6767 108.011 63.6365C107.91 63.5945 107.787 63.5723 107.642 63.5699C107.494 63.5611 107.337 63.5549 107.171 63.5512C106.751 63.5324 106.424 63.4303 106.188 63.2451C105.957 63.0517 105.804 62.8166 105.73 62.5397C105.673 62.3271 105.671 62.1 105.723 61.8581C105.78 61.6081 105.912 61.3795 106.119 61.1723C106.331 60.9569 106.633 60.7966 107.026 60.6913C107.38 60.5964 107.689 60.5516 107.952 60.5569C108.216 60.5621 108.479 60.6159 108.741 60.7182L108.441 61.6475C108.293 61.5837 108.133 61.5403 107.961 61.5173C107.794 61.4861 107.645 61.4846 107.515 61.5127C107.397 61.5373 107.301 61.5769 107.226 61.6315C107.157 61.6844 107.107 61.7427 107.076 61.8063C107.045 61.8699 107.037 61.9306 107.052 61.9886C107.079 62.1127 107.149 62.1972 107.265 62.2421C107.387 62.2854 107.531 62.3056 107.695 62.3028C107.86 62.3001 108.024 62.3046 108.186 62.3164C108.409 62.3256 108.609 62.3651 108.787 62.4349C108.964 62.5046 109.112 62.6065 109.231 62.7403C109.354 62.866 109.445 63.0351 109.501 63.2476C109.571 63.5052 109.568 63.768 109.495 64.036C109.427 64.2959 109.277 64.5329 109.044 64.7471C108.818 64.9595 108.499 65.1209 108.087 65.2313ZM109.78 58.1725L111.132 57.8102L111.624 59.6454L112.648 59.3711L112.93 60.424L111.906 60.6983L112.76 63.8859L111.408 64.2482L110.554 61.0606L109.897 61.2366L109.615 60.1838L110.272 60.0078L109.78 58.1725ZM116.921 62.8952C116.406 63.0332 115.942 63.054 115.53 62.9574C115.124 62.8591 114.782 62.6643 114.504 62.3731C114.226 62.0818 114.027 61.714 113.908 61.2697C113.794 60.8447 113.801 60.4322 113.928 60.0323C114.056 59.6323 114.276 59.2833 114.59 58.9854C114.902 58.6809 115.283 58.4683 115.734 58.3476C116.339 58.1854 116.882 58.2296 117.364 58.4802C117.85 58.7227 118.24 59.1601 118.533 59.7923L115.529 61.7155L115.032 61.0616L117.194 59.6232L116.947 59.8238C116.851 59.6702 116.719 59.5503 116.551 59.4642C116.387 59.3699 116.174 59.3581 115.91 59.4289C115.71 59.4824 115.546 59.5781 115.417 59.7161C115.293 59.846 115.213 60.009 115.176 60.2053C115.143 60.3935 115.158 60.6034 115.22 60.8353C115.291 61.0993 115.399 61.3085 115.544 61.4629C115.687 61.6109 115.854 61.7076 116.046 61.7528C116.237 61.7981 116.436 61.7932 116.642 61.738C116.79 61.6983 116.925 61.6346 117.047 61.5468C117.174 61.4573 117.295 61.3526 117.408 61.2327L118.276 62.0768C118.085 62.2659 117.868 62.4345 117.624 62.5826C117.387 62.7289 117.153 62.8331 116.921 62.8952ZM120.239 57.3579L120.675 58.4834L120.599 58.3173C120.654 58.0334 120.765 57.776 120.931 57.5452C121.095 57.308 121.267 57.1134 121.447 56.9616C121.634 56.8081 121.782 56.7167 121.891 56.6873L122.186 58.0577C121.86 58.1036 121.603 58.2276 121.416 58.4297C121.229 58.6318 121.105 58.8651 121.045 59.1297C120.984 59.3943 120.987 59.649 121.053 59.8937L121.495 61.5454L120.153 61.9051L119.021 57.684L120.239 57.3579Z" fill="white"/>
</svg>
